<?xml version="1.0" encoding="iso-8859-1"?>
<!-- Generator: Adobe Illustrator 19.0.0, SVG Export Plug-In . SVG Version: 6.00 Build 0)  -->
<svg version="1.1" id="Capa_1" xmlns="http://www.w3.org/2000/svg" xmlns:xlink="http://www.w3.org/1999/xlink" x="0px" y="0px"
	 viewBox="0 0 512 512" style="enable-background:new 0 0 512 512;" xml:space="preserve">
<path style="fill:#F3F3F3;" d="M473.12,510.16H38.88C17.408,510.16,0,492.752,0,471.28V40.72C0,19.248,17.408,1.84,38.88,1.84
	h356.352c21.472,0,38.88,17.408,38.88,38.88v288.32L473.12,510.16z"/>
<path style="fill:#CACACA;" d="M512,471.28V260.064h-77.872V471.28c0,21.472,17.408,38.88,38.88,38.88h0.112
	C494.592,510.16,512,492.752,512,471.28z"/>
<rect x="42.912" y="46.944" style="fill:#FFCC5B;" width="346.896" height="146.944"/>
<path style="fill:#FDBC4B;" d="M73.232,159.872c12.768-2.08,21.6-14.064,21.6-26.992V99.584c0-12,9.824-21.792,21.824-21.744h0.288
	c0.48,0,0.944-0.016,1.408-0.032c11.92-0.656,21.984,8.592,21.984,20.512v20.736c0,12.976,8.864,25.04,21.68,27.088
	c16.224,2.592,30.24-9.872,30.24-25.616v-5.808c0-12.064,9.824-21.824,21.888-21.76l1.504,0.016h0.304
	c12.688-0.096,23.088,10.224,23.088,22.912v10c0,12.976,8.864,25.04,21.68,27.088c16.224,2.592,30.24-9.872,30.24-25.616V87.424
	c0-12.688,10.384-23.008,23.088-22.912h0.304h0.304c12.688-0.096,23.088,10.224,23.088,22.912v20.288
	c0,12.976,8.864,25.04,21.68,27.088c16.224,2.592,30.24-9.872,30.24-25.616v-62.24H42.912v87.312
	C42.912,150.032,56.976,162.512,73.232,159.872z"/>
<g>
	<path style="fill:#464646;" d="M87.088,152.56V88.24h12.64l26.32,42.96V88.24h12.064v64.336h-13.024l-25.936-41.952v41.952H87.088
		V152.56z"/>
	<path style="fill:#464646;" d="M151.856,152.56V88.24h47.696v10.88h-34.704v14.256h32.288v10.832h-32.288v17.504h35.936v10.832
		h-48.928V152.56z"/>
	<path style="fill:#464646;" d="M220.928,152.56l-15.36-64.336h13.296l9.696,44.192l11.76-44.192h15.44l11.28,44.928l9.872-44.928
		h13.072l-15.616,64.336h-13.776l-12.816-48.08l-12.768,48.096h-14.08V152.56z"/>
	<path style="fill:#464646;" d="M293.328,131.632l12.64-1.232c0.768,4.24,2.304,7.36,4.624,9.344s5.456,2.992,9.408,2.992
		c4.176,0,7.328-0.88,9.456-2.656s3.184-3.84,3.184-6.208c0-1.52-0.448-2.816-1.344-3.888c-0.88-1.056-2.432-1.984-4.656-2.784
		c-1.52-0.528-4.992-1.456-10.4-2.8c-6.96-1.728-11.84-3.84-14.656-6.368c-3.952-3.536-5.92-7.856-5.92-12.944
		c0-3.28,0.928-6.336,2.784-9.2c1.856-2.848,4.528-5.024,8.032-6.512s7.712-2.24,12.656-2.24c8.08,0,14.16,1.776,18.24,5.312
		c4.08,3.536,6.224,8.256,6.432,14.176L330.8,107.2c-0.56-3.312-1.744-5.68-3.568-7.136c-1.824-1.44-4.576-2.176-8.224-2.176
		c-3.776,0-6.72,0.768-8.864,2.32c-1.376,0.992-2.064,2.32-2.064,4c0,1.52,0.64,2.816,1.936,3.904
		c1.632,1.376,5.616,2.8,11.936,4.304c6.32,1.488,10.992,3.04,14.016,4.624c3.024,1.6,5.392,3.776,7.104,6.544
		s2.56,6.176,2.56,10.24c0,3.68-1.024,7.136-3.072,10.352s-4.944,5.616-8.688,7.168c-3.744,1.568-8.416,2.352-14,2.352
		c-8.128,0-14.384-1.872-18.736-5.632C296.784,144.304,294.176,138.832,293.328,131.632z"/>
</g>
<rect x="42.912" y="235.04" style="fill:#3789C9;" width="138.272" height="160.8"/>
<path style="fill:#4B9FD8;" d="M131.76,381.84c-0.96-5.92-6.528-10.016-12.528-10.016h-15.44c-5.568,0-10.112-4.56-10.08-10.128
	v-0.128c0-0.224,0-0.432-0.016-0.656c-0.304-5.52,3.984-10.192,9.52-10.192h9.616c6.016,0,11.616-4.112,12.56-10.064
	c1.2-7.536-4.576-14.032-11.888-14.032h-2.688c-5.6,0-10.128-4.56-10.096-10.16v-0.704v-0.144
	c-0.048-5.888,4.736-10.704,10.64-10.704H116c6.016,0,11.616-4.112,12.56-10.064c1.2-7.536-4.576-14.032-11.888-14.032H98.144
	c-5.888,0-10.672-4.816-10.624-10.704v-0.144v-0.144c-0.048-5.888,4.736-10.704,10.624-10.704h9.408
	c6.016,0,11.616-4.112,12.56-10.064c1.2-7.536-4.576-14.032-11.888-14.032H42.256v160.864h77.632
	C127.184,395.904,132.976,389.376,131.76,381.84z"/>
<g>
	<rect x="223.232" y="299.472" style="fill:#CACACA;" width="166.4" height="32"/>
	<rect x="223.232" y="365.104" style="fill:#CACACA;" width="166.4" height="32"/>
	<rect x="42.256" y="430.752" style="fill:#CACACA;" width="347.376" height="32"/>
</g>
<g>
</g>
<g>
</g>
<g>
</g>
<g>
</g>
<g>
</g>
<g>
</g>
<g>
</g>
<g>
</g>
<g>
</g>
<g>
</g>
<g>
</g>
<g>
</g>
<g>
</g>
<g>
</g>
<g>
</g>
</svg>
